<svg xmlns="http://www.w3.org/2000/svg" viewBox="0 0 512 512" width="512" height="512">
  <defs>
    <linearGradient id="g" x1="0" y1="0" x2="1" y2="1">
      <stop offset="0" stop-color="#0f7a5a"/><stop offset="1" stop-color="#093f32"/>
    </linearGradient>
  </defs>
  <rect width="512" height="512" rx="116" fill="url(#g)"/>
  <g transform="translate(256 268) scale(0.90) translate(-256 -268)">
    <polygon points="102,140 243,124 243,296 102,312" fill="#ffffff"/>
    <polygon points="410,140 269,124 269,296 410,312" fill="#e9f5ef"/>
    <rect x="243" y="128" width="26" height="164" fill="#d2e8de"/>
    <rect x="134" y="196" width="80" height="9" rx="4.5" fill="#0f7a5a"/>
    <rect x="134" y="232" width="80" height="9" rx="4.5" fill="#0f7a5a"/>
    <rect x="134" y="268" width="80" height="9" rx="4.5" fill="#0f7a5a"/>
    <rect x="298" y="196" width="80" height="9" rx="4.5" fill="#0f7a5a"/>
    <rect x="298" y="232" width="80" height="9" rx="4.5" fill="#0f7a5a"/>
    <rect x="298" y="268" width="80" height="9" rx="4.5" fill="#0f7a5a"/>
    <circle cx="361" cy="118" r="46" fill="#f2bc54"/>
    <circle cx="361" cy="118" r="33" fill="none" stroke="#093f32" stroke-width="6"/>
    <rect x="347" y="101" width="28" height="7" rx="3.5" fill="#093f32"/>
    <rect x="347" y="128" width="28" height="7" rx="3.5" fill="#093f32"/>
  </g>
</svg>